<svg id="Layer_1" data-name="Layer 1" xmlns="http://www.w3.org/2000/svg" viewBox="0 0 90 26"><defs><style>.cls-1{fill:#29aae1;}</style></defs><path d="M15.5,11.25a3.53,3.53,0,0,0-2.95-1.31,3.88,3.88,0,0,0-2.46.8,3.57,3.57,0,0,0-.85,1A3.47,3.47,0,0,0,6.09,9.94a3.38,3.38,0,0,0-2.73,1.25v-1H1.86V21.87h1.5V15.15a5.52,5.52,0,0,1,.45-2.44,2.41,2.41,0,0,1,.92-1A2.48,2.48,0,0,1,6,11.36,2,2,0,0,1,8,12.46a4.1,4.1,0,0,1,.38,1.95v7.46H9.83v-7a4.27,4.27,0,0,1,.7-2.63,2.36,2.36,0,0,1,2-.87,2.08,2.08,0,0,1,1.78.77,1.79,1.79,0,0,1,.36.73,6,6,0,0,1,.1,1.27v7.73h1.49V14.29a8,8,0,0,0-.15-1.83A3.25,3.25,0,0,0,15.5,11.25Z"/><rect x="19.8" y="10.19" width="1.49" height="11.69"/><path d="M20.55,5.43a1.11,1.11,0,0,0-.84.35,1.07,1.07,0,0,0-.35.83,1.2,1.2,0,0,0,.34.86,1.14,1.14,0,0,0,.86.36,1.21,1.21,0,0,0,1.2-1.21,1.15,1.15,0,0,0-.35-.84A1.17,1.17,0,0,0,20.55,5.43Z"/><path d="M39.08,12.46a3,3,0,0,0-.59-1.21,3.51,3.51,0,0,0-3-1.31,3.87,3.87,0,0,0-2.45.8,3.78,3.78,0,0,0-.86,1,3.45,3.45,0,0,0-3.15-1.85,3.4,3.4,0,0,0-2.73,1.25v-1H24.86V21.87h1.49V15.15a5.53,5.53,0,0,1,.46-2.44,2.39,2.39,0,0,1,.91-1A2.52,2.52,0,0,1,29,11.36,2,2,0,0,1,31,12.46a4.11,4.11,0,0,1,.39,1.95v7.46h1.49v-7a4.21,4.21,0,0,1,.7-2.63,2.33,2.33,0,0,1,2-.87,2.07,2.07,0,0,1,1.78.77,1.81,1.81,0,0,1,.37.73,6,6,0,0,1,.09,1.27v7.73h1.5V14.29A8.65,8.65,0,0,0,39.08,12.46Z"/><path d="M72.35,11.51a5.46,5.46,0,0,0-4.24-1.86A5.59,5.59,0,0,0,64.4,11a5.85,5.85,0,0,0-2,4.73,6.38,6.38,0,0,0,1.37,4.16,5.43,5.43,0,0,0,4.36,2,5.67,5.67,0,0,0,3.19-1,4.94,4.94,0,0,0,1-1v1.64h1.5V9.89h-1.5Zm.07,4.12a5.16,5.16,0,0,1-1,3.22,3.9,3.9,0,0,1-3.28,1.61,3.94,3.94,0,0,1-3-1.28A5,5,0,0,1,64,15.61a4.47,4.47,0,0,1,1.11-3.14,4.09,4.09,0,0,1,3.1-1.41,4.36,4.36,0,0,1,2.92,1.16,4.26,4.26,0,0,1,1.34,3.41Z"/><path d="M81.21,9.65a2.73,2.73,0,0,0-2.31,1.22v-1H77.41V21.58H78.9V15.31A15.23,15.23,0,0,1,79,13a2.56,2.56,0,0,1,.45-1.09A1.9,1.9,0,0,1,81,11.05a1.61,1.61,0,0,1,.71.2l.16.09L82.68,10l-.21-.09A3.17,3.17,0,0,0,81.21,9.65Z"/><polygon points="86.8 9.89 86.8 5.85 85.3 5.85 85.3 9.89 84.05 9.89 84.05 11.29 85.3 11.29 85.3 21.58 86.8 21.58 86.8 11.29 88.77 11.29 88.77 9.89 86.8 9.89"/><circle cx="48.07" cy="22.42" r="1.37"/><circle cx="54.47" cy="22.42" r="1.37"/><path class="cls-1" d="M47.86,3.82,46.43,2.14a1.23,1.23,0,0,0-1-.41H37.78a1.2,1.2,0,0,0,0,2.4H45L46.05,5.4a1.21,1.21,0,0,0,1.7.1A1.2,1.2,0,0,0,47.86,3.82Z"/><path class="cls-1" d="M57.61,14.51a6.76,6.76,0,0,1-11.34,2.58,7.27,7.27,0,0,1,0-10A9,9,0,0,1,49.05,5.2L47.16,3a9.73,9.73,0,0,0-2.85,2,10.15,10.15,0,0,0,0,14A9,9,0,0,0,46.9,21a1.79,1.79,0,0,1,2.53.17,1.76,1.76,0,0,1,.39.74A9.07,9.07,0,0,0,51.1,22a9.63,9.63,0,0,0,1.61-.13,1.8,1.8,0,0,1,2.21-1.25,1.72,1.72,0,0,1,.6.31,9.84,9.84,0,0,0,4.87-6.42Z"/><path class="cls-1" d="M46.52,10.52S45.6,11.87,45.19,12c0,0-.55.06-.32.18,0,0,.43.41,1.65.12,0,0,.46-1,.75-1.12v1l.38-.1a3.3,3.3,0,0,1,.3-1.31S48,8.76,46.52,10.52Zm1-.51c-.27.43-1.34,1.75-1.34,1.75-.92.28-.42-.13-.42-.13a8.78,8.78,0,0,0,1-1.35C47.54,9.56,47.51,10,47.51,10Z"/><path class="cls-1" d="M49.57,11.86l0-.83-.49-.09-.28.77a.87.87,0,0,0-.62,1.06.83.83,0,0,0,.31.47l0,.84.49.1.29-.79a.87.87,0,0,0,.62-1.06.89.89,0,0,0-.32-.47Zm-.67,1.32a.66.66,0,1,1,.26-1.3.65.65,0,0,1,.52.78h0a.66.66,0,0,1-.78.52Z"/><path class="cls-1" d="M49.05,12.44h0l-.22-.32-.06,0,.2.33v0a.13.13,0,0,0,0,.12l-.07.34H49l.08-.34a.11.11,0,0,0,.09-.13.12.12,0,0,0-.09-.09Z"/><path class="cls-1" d="M48.47,12.42s0,0,0,0h0s0,0,0,0,0,0,0,0h0s0,0,0,0Z"/><path class="cls-1" d="M48.92,13.08s0,0,0,0a0,0,0,0,0,0,0,0,0,0,0,0,.05,0h0S48.94,13.09,48.92,13.08Z"/><path class="cls-1" d="M49.61,12.65a.05.05,0,0,0,0,0h0s0,0,0,0,0,0,0,0,0,0,0,0Z"/><path class="cls-1" d="M49.14,12a.05.05,0,0,0,0,0s0,0,0,0,0,0,0,0S49.12,12,49.14,12Z"/><path class="cls-1" d="M53,15.07a.47.47,0,0,1-.61-.24.46.46,0,1,1,.61.24Zm-.42-.94a.57.57,0,1,0,.75.29h0A.56.56,0,0,0,52.62,14.13Zm.76-.27a.13.13,0,0,1-.16-.06.12.12,0,0,1,.06-.15.11.11,0,0,1,.15.06A.11.11,0,0,1,53.38,13.86Zm-.25,1.42a.69.69,0,1,1,.35-.91h0A.7.7,0,0,1,53.13,15.28Zm-1.27-.75a.05.05,0,0,1,0,.07h0l-.41.19a.06.06,0,0,1-.08,0l-.05-.11a.05.05,0,0,1,0-.07h0l.42-.19a.07.07,0,0,1,.08,0l0,.11Zm1.43-1-1.46.65,0,.05-.52.23,0,0-.11,0a.19.19,0,0,0-.09.23h0l.56,1.25a.16.16,0,0,0,.22.09h0L54,15.09a.17.17,0,0,0,.09-.23h0l-.55-1.25a.17.17,0,0,0-.23-.09Zm-1.54.62a.05.05,0,0,0-.07,0l-.32.14a.06.06,0,0,0,0,.07h0l0,0,.42-.18Z"/><path class="cls-1" d="M49.22,7.82l.51.31-.07.1-.5-.31.06-.1Zm-.37.39-.08-.08a.18.18,0,0,0-.26.26.1.1,0,0,0,.07,0,.2.2,0,0,0,.28,0h0L49.08,8l.51.31-.13.23a.76.76,0,0,0-.09-.09.19.19,0,0,0-.26.27l.07,0a.22.22,0,0,0,.28,0h0l.43-.7-.69-.43-.35.56Zm.53,1.15a.31.31,0,0,1-.42.1L48.19,9a.3.3,0,0,1-.1-.42h0l.78-1.29a.31.31,0,0,1,.42-.11l.78.47a.31.31,0,0,1,.1.42l-.79,1.3Zm-1.05.26a.18.18,0,0,1-.06-.24.17.17,0,0,1,.24-.07h0a.17.17,0,0,1,0,.24A.18.18,0,0,1,48.33,9.62Zm1.94-2.13-.94-.57a.4.4,0,0,0-.54.13L47.67,8.89a.4.4,0,0,0,.13.54l1,.57a.4.4,0,0,0,.54-.13L50.41,8a.4.4,0,0,0-.14-.54Z"/><path class="cls-1" d="M51.42,7.64a1.24,1.24,0,0,0-.19,1.74l.61.76a.14.14,0,0,0,.18,0h0l.16-.12a.15.15,0,0,0,0-.19l-.49-.61a.15.15,0,0,0-.19,0h0l-.1.09,0-.05A1,1,0,0,1,53,8l0,0-.1.08a.15.15,0,0,0,0,.19h0l.49.61a.14.14,0,0,0,.18,0h0l.15-.12a.14.14,0,0,0,0-.18l-.61-.76a1.24,1.24,0,0,0-1.74-.19Zm.32,2.58-.49-.61a.65.65,0,0,0,.49.61ZM53.38,7.9l.49.61A.65.65,0,0,0,53.38,7.9Z"/><path class="cls-1" d="M51.55,12.21h.05l.37-.28a.05.05,0,0,0,0,0l0,0-.37-.27h-.05s0,0,0,0v.56S51.53,12.21,51.55,12.21Zm1-1h-.19v-.14h.19Zm0,1.31H50.87V11.29h1.68V12.5Zm0,.23h-.19v-.14h.19Zm-.37,0H52v-.14h.19Zm-.38,0h-.18v-.14h.18Zm-.37,0h-.19v-.14h.19Zm-.37,0h-.19v-.14h.19Zm-.19-1.68h.19v.14h-.19v-.14Zm.37,0h.19v.14h-.19v-.14Zm.38,0h.18v.14h-.18v-.14Zm.37,0h.19v.14H52v-.14Zm.56-.09H50.87a.09.09,0,0,0-.09.09h0v1.68a.09.09,0,0,0,.09.09h1.68a.09.09,0,0,0,.09-.09h0V11.05a.09.09,0,0,0-.09-.09Z"/><path class="cls-1" d="M53.81,17a.25.25,0,0,1-.36-.05.26.26,0,0,1,0-.36.27.27,0,0,1,.36,0,.25.25,0,0,1,0,.36Zm.7.28a.26.26,0,0,1-.31-.41.26.26,0,0,1,.36.05h0A.27.27,0,0,1,54.51,17.29Zm.29-.79-.16-.2a.07.07,0,0,1,0-.09l.25-.2-.19-.26a.06.06,0,0,1,0-.09l.21-.15a.06.06,0,0,1,.09,0l.19.26.26-.2a.07.07,0,0,1,.09,0h0l.16.21a.07.07,0,0,1,0,.09h0l-.25.2.19.25a.06.06,0,0,1,0,.09h0l-.21.16a.06.06,0,0,1-.09,0h0l-.19-.26-.26.19a.06.06,0,0,1-.09,0Zm-1.34-.27a.9.9,0,0,0-.08,1.27.89.89,0,0,0,1.17.16h0l1.23-.94h0a.91.91,0,0,0-1.09-1.44h0l-1.23.94Z"/><path class="cls-1" d="M50.48,17.72,46.89,16.2a.15.15,0,0,0-.2.08.16.16,0,0,0,.08.21L50.36,18a.15.15,0,0,0,.2-.08.15.15,0,0,0-.08-.2Z"/><polygon class="cls-1" points="50.21 17.41 47.22 16.15 46.82 16.16 50.55 17.73 50.21 17.41"/><path class="cls-1" d="M48,14.12l-.83,2,3,1.26.83-2Zm2.15,3L47.32,16l.73-1.72,2.84,1.2Z"/><path class="cls-1" d="M55.83,10.08l.91.95.4.15L56,10a.09.09,0,0,0-.13,0h0a.09.09,0,0,0,0,.13ZM54,11.66l1.88.71a.57.57,0,0,0,0-.18L54.1,11.5a.86.86,0,0,0-.1.16Zm0,.76,1.46.55.18-.12-1.68-.64a.78.78,0,0,0,0,.21ZM53.9,12l1.82.69a.86.86,0,0,0,.1-.16l-1.88-.71a1.16,1.16,0,0,0,0,.18Zm1.37-.85a1,1,0,0,0-.61,0l1.08.41a1,1,0,0,0-.47-.37Zm.59.61-1.45-.55a.83.83,0,0,0-.18.13l1.68.64a.87.87,0,0,0,0-.22ZM54.55,13a1,1,0,0,0,.61,0l-1.09-.41A1,1,0,0,0,54.55,13Zm2.22-.43a.46.46,0,0,1-.26-.59.46.46,0,1,1,.27.59Zm-.19.51a.18.18,0,0,1-.11-.23.19.19,0,0,1,.24-.11.19.19,0,1,1-.13.35Zm-2.13.18a1.28,1.28,0,1,1,1.66-.75h0a1.28,1.28,0,0,1-1.65.75Zm3-1.79L54.4,10.34a.38.38,0,0,0-.48.21h0l-.77,2.06a.35.35,0,0,0,.21.47l3.09,1.17a.36.36,0,0,0,.47-.21L57.7,12a.36.36,0,0,0-.21-.47ZM57,12a.17.17,0,0,0-.23.1h0a.17.17,0,0,0,.1.23.19.19,0,0,0,.24-.1h0A.19.19,0,0,0,57,12Z"/></svg>